# xmcd CD database file generated by Grip 2.95
# 
# Track frame offsets:
#       150
#       18375
#       35310
#       49015
#       65305
#       93980
#       112705
#       129635
#       141687
#       157657
#       172572
#       191017
#       202220
# 
# Disc length: 2845 seconds
# 
# Revision: 3
# Processed by: cddbd v1.4b41PL1 Copyright (c) Steve Scherf et al.
# Submitted via: Grip 2.95
# 
DISCID=a60b1b0d
DTITLE=Jamie James - Cruel World
DYEAR=1900
DGENRE=
TTITLE0=Cruel World
TTITLE1=Do Your Thing
TTITLE2=My Mistake
TTITLE3=American Dream
TTITLE4=Hootchie Cootchie
TTITLE5=Love And Sex
TTITLE6=Hollywood Girl
TTITLE7=Shake Bop
TTITLE8=Respect
TTITLE9=Outlaw
TTITLE10=Canadian Blues
TTITLE11=All I Got
TTITLE12=Child Of Mercy
EXTD=
EXTT0=
EXTT1=
EXTT2=
EXTT3=
EXTT4=
EXTT5=
EXTT6=
EXTT7=
EXTT8=
EXTT9=
EXTT10=
EXTT11=
EXTT12=
PLAYORDER=
